# This file uses centimeters as units for non-parametric coordinates.

mtllib Table_try.mtl
g default
v -0.404058 0.623242 -0.708161
v -0.404058 0.706073 -0.708161
v 0.424253 0.623242 -0.708161
v 0.424253 0.706073 -0.708161
v 0.424253 0.623242 -0.790992
v 0.424253 0.706073 -0.790992
v -0.404058 0.623242 -0.790992
v -0.404058 0.706073 -0.790992
v -0.404058 0.623242 0.777191
v -0.404058 0.706073 0.777191
v 0.424253 0.623242 0.777191
v 0.424253 0.706073 0.777191
v 0.424253 0.623242 0.694360
v 0.424253 0.706073 0.694360
v -0.404058 0.623242 0.694360
v -0.404058 0.706073 0.694360
v -0.031318 0.623242 0.740629
v -0.031318 0.706073 0.740629
v 0.051513 0.623242 0.740629
v 0.051513 0.706073 0.740629
v 0.051513 0.623242 -0.750331
v 0.051513 0.706073 -0.750331
v -0.031318 0.623242 -0.750331
v -0.031318 0.706073 -0.750331
v -0.569721 0.809758 0.906291
v -0.569721 0.851174 0.906291
v 0.589915 0.809758 0.906291
v 0.589915 0.851174 0.906291
v 0.589915 0.809758 -0.915994
v 0.589915 0.851174 -0.915994
v -0.569721 0.809758 -0.915994
v -0.569721 0.851174 -0.915994
v -0.486889 0.002009 0.782044
v -0.486889 0.830320 0.782044
v -0.404058 0.002009 0.782044
v -0.404058 0.830320 0.782044
v -0.404058 0.002009 0.699213
v -0.404058 0.830320 0.699213
v -0.486889 0.002009 0.699213
v -0.486889 0.830320 0.699213
v 0.424253 0.002009 0.782044
v 0.424253 0.830320 0.782044
v 0.507084 0.002009 0.782044
v 0.507084 0.830320 0.782044
v 0.507084 0.002009 0.699213
v 0.507084 0.830320 0.699213
v 0.424253 0.002009 0.699213
v 0.424253 0.830320 0.699213
v -0.486889 0.002009 -0.708916
v -0.486889 0.830320 -0.708916
v -0.404058 0.002009 -0.708916
v -0.404058 0.830320 -0.708916
v -0.404058 0.002009 -0.791747
v -0.404058 0.830320 -0.791747
v -0.486889 0.002009 -0.791747
v -0.486889 0.830320 -0.791747
v 0.424253 0.002009 -0.708916
v 0.424253 0.830320 -0.708916
v 0.507084 0.002009 -0.708916
v 0.507084 0.830320 -0.708916
v 0.507084 0.002009 -0.791747
v 0.507084 0.830320 -0.791747
v 0.424253 0.002009 -0.791747
v 0.424253 0.830320 -0.791747
vn -0.000000 -0.000000 1.000000
vn -0.000000 -0.000000 1.000000
vn -0.000000 -0.000000 1.000000
vn -0.000000 -0.000000 1.000000
vn 1.000000 0.000000 0.000000
vn 1.000000 0.000000 0.000000
vn 1.000000 0.000000 0.000000
vn 1.000000 0.000000 0.000000
vn 0.000000 0.000000 -1.000000
vn 0.000000 0.000000 -1.000000
vn 0.000000 0.000000 -1.000000
vn 0.000000 0.000000 -1.000000
vn -1.000000 -0.000000 0.000000
vn -1.000000 -0.000000 0.000000
vn -1.000000 -0.000000 0.000000
vn -1.000000 -0.000000 0.000000
vn 0.000000 1.000000 0.000000
vn 0.000000 1.000000 0.000000
vn 0.000000 1.000000 0.000000
vn 0.000000 1.000000 0.000000
vn -0.000000 -1.000000 0.000000
vn -0.000000 -1.000000 0.000000
vn -0.000000 -1.000000 0.000000
vn -0.000000 -1.000000 0.000000
vn -0.000000 -0.000000 1.000000
vn -0.000000 -0.000000 1.000000
vn -0.000000 -0.000000 1.000000
vn -0.000000 -0.000000 1.000000
vn 1.000000 0.000000 0.000000
vn 1.000000 0.000000 0.000000
vn 1.000000 0.000000 0.000000
vn 1.000000 0.000000 0.000000
vn 0.000000 0.000000 -1.000000
vn 0.000000 0.000000 -1.000000
vn 0.000000 0.000000 -1.000000
vn 0.000000 0.000000 -1.000000
vn -1.000000 -0.000000 0.000000
vn -1.000000 -0.000000 0.000000
vn -1.000000 -0.000000 0.000000
vn -1.000000 -0.000000 0.000000
vn 0.000000 1.000000 0.000000
vn 0.000000 1.000000 0.000000
vn 0.000000 1.000000 0.000000
vn 0.000000 1.000000 0.000000
vn -0.000000 -1.000000 0.000000
vn -0.000000 -1.000000 0.000000
vn -0.000000 -1.000000 0.000000
vn -0.000000 -1.000000 0.000000
vn -0.000000 -0.000000 1.000000
vn -0.000000 -0.000000 1.000000
vn -0.000000 -0.000000 1.000000
vn -0.000000 -0.000000 1.000000
vn 1.000000 0.000000 0.000000
vn 1.000000 0.000000 0.000000
vn 1.000000 0.000000 0.000000
vn 1.000000 0.000000 0.000000
vn 0.000000 0.000000 -1.000000
vn 0.000000 0.000000 -1.000000
vn 0.000000 0.000000 -1.000000
vn 0.000000 0.000000 -1.000000
vn -1.000000 -0.000000 0.000000
vn -1.000000 -0.000000 0.000000
vn -1.000000 -0.000000 0.000000
vn -1.000000 -0.000000 0.000000
vn 0.000000 1.000000 0.000000
vn 0.000000 1.000000 0.000000
vn 0.000000 1.000000 0.000000
vn 0.000000 1.000000 0.000000
vn -0.000000 -1.000000 0.000000
vn -0.000000 -1.000000 0.000000
vn -0.000000 -1.000000 0.000000
vn -0.000000 -1.000000 0.000000
vn -0.000000 -0.000000 1.000000
vn -0.000000 -0.000000 1.000000
vn -0.000000 -0.000000 1.000000
vn -0.000000 -0.000000 1.000000
vn 0.000000 0.000000 -1.000000
vn 0.000000 0.000000 -1.000000
vn 0.000000 0.000000 -1.000000
vn 0.000000 0.000000 -1.000000
vn 0.000000 1.000000 0.000000
vn 0.000000 1.000000 0.000000
vn 0.000000 1.000000 0.000000
vn 0.000000 1.000000 0.000000
vn -0.000000 -1.000000 0.000000
vn -0.000000 -1.000000 0.000000
vn -0.000000 -1.000000 0.000000
vn -0.000000 -1.000000 0.000000
vn 1.000000 0.000000 0.000000
vn 1.000000 0.000000 0.000000
vn 1.000000 0.000000 0.000000
vn 1.000000 0.000000 0.000000
vn -1.000000 -0.000000 0.000000
vn -1.000000 -0.000000 0.000000
vn -1.000000 -0.000000 0.000000
vn -1.000000 -0.000000 0.000000
vn -0.000000 -0.000000 1.000000
vn -0.000000 -0.000000 1.000000
vn -0.000000 -0.000000 1.000000
vn -0.000000 -0.000000 1.000000
vn 1.000000 0.000000 0.000000
vn 1.000000 0.000000 0.000000
vn 1.000000 0.000000 0.000000
vn 1.000000 0.000000 0.000000
vn 0.000000 0.000000 -1.000000
vn 0.000000 0.000000 -1.000000
vn 0.000000 0.000000 -1.000000
vn 0.000000 0.000000 -1.000000
vn -1.000000 -0.000000 0.000000
vn -1.000000 -0.000000 0.000000
vn -1.000000 -0.000000 0.000000
vn -1.000000 -0.000000 0.000000
vn 0.000000 1.000000 0.000000
vn 0.000000 1.000000 0.000000
vn 0.000000 1.000000 0.000000
vn 0.000000 1.000000 0.000000
vn -0.000000 -1.000000 0.000000
vn -0.000000 -1.000000 0.000000
vn -0.000000 -1.000000 0.000000
vn -0.000000 -1.000000 0.000000
vn -0.000000 -0.000000 1.000000
vn -0.000000 -0.000000 1.000000
vn -0.000000 -0.000000 1.000000
vn -0.000000 -0.000000 1.000000
vn 1.000000 0.000000 0.000000
vn 1.000000 0.000000 0.000000
vn 1.000000 0.000000 0.000000
vn 1.000000 0.000000 0.000000
vn 0.000000 0.000000 -1.000000
vn 0.000000 0.000000 -1.000000
vn 0.000000 0.000000 -1.000000
vn 0.000000 0.000000 -1.000000
vn -1.000000 -0.000000 0.000000
vn -1.000000 -0.000000 0.000000
vn -1.000000 -0.000000 0.000000
vn -1.000000 -0.000000 0.000000
vn 0.000000 1.000000 0.000000
vn 0.000000 1.000000 0.000000
vn 0.000000 1.000000 0.000000
vn 0.000000 1.000000 0.000000
vn -0.000000 -1.000000 0.000000
vn -0.000000 -1.000000 0.000000
vn -0.000000 -1.000000 0.000000
vn -0.000000 -1.000000 0.000000
vn -0.000000 -0.000000 1.000000
vn -0.000000 -0.000000 1.000000
vn -0.000000 -0.000000 1.000000
vn -0.000000 -0.000000 1.000000
vn 1.000000 0.000000 0.000000
vn 1.000000 0.000000 0.000000
vn 1.000000 0.000000 0.000000
vn 1.000000 0.000000 0.000000
vn 0.000000 0.000000 -1.000000
vn 0.000000 0.000000 -1.000000
vn 0.000000 0.000000 -1.000000
vn 0.000000 0.000000 -1.000000
vn -1.000000 -0.000000 0.000000
vn -1.000000 -0.000000 0.000000
vn -1.000000 -0.000000 0.000000
vn -1.000000 -0.000000 0.000000
vn 0.000000 1.000000 0.000000
vn 0.000000 1.000000 0.000000
vn 0.000000 1.000000 0.000000
vn 0.000000 1.000000 0.000000
vn -0.000000 -1.000000 0.000000
vn -0.000000 -1.000000 0.000000
vn -0.000000 -1.000000 0.000000
vn -0.000000 -1.000000 0.000000
vn -0.000000 -0.000000 1.000000
vn -0.000000 -0.000000 1.000000
vn -0.000000 -0.000000 1.000000
vn -0.000000 -0.000000 1.000000
vn 1.000000 0.000000 0.000000
vn 1.000000 0.000000 0.000000
vn 1.000000 0.000000 0.000000
vn 1.000000 0.000000 0.000000
vn 0.000000 0.000000 -1.000000
vn 0.000000 0.000000 -1.000000
vn 0.000000 0.000000 -1.000000
vn 0.000000 0.000000 -1.000000
vn -1.000000 -0.000000 0.000000
vn -1.000000 -0.000000 0.000000
vn -1.000000 -0.000000 0.000000
vn -1.000000 -0.000000 0.000000
vn 0.000000 1.000000 0.000000
vn 0.000000 1.000000 0.000000
vn 0.000000 1.000000 0.000000
vn 0.000000 1.000000 0.000000
vn -0.000000 -1.000000 0.000000
vn -0.000000 -1.000000 0.000000
vn -0.000000 -1.000000 0.000000
vn -0.000000 -1.000000 0.000000
s off
g table:Mesh
usemtl table:Mat_1
f 3//1 4//2 2//3 1//4
f 5//5 6//6 4//7 3//8
f 7//9 8//10 6//11 5//12
f 1//13 2//14 8//15 7//16
f 4//17 6//18 8//19 2//20
f 5//21 3//22 1//23 7//24
f 11//25 12//26 10//27 9//28
f 13//29 14//30 12//31 11//32
f 15//33 16//34 14//35 13//36
f 9//37 10//38 16//39 15//40
f 12//41 14//42 16//43 10//44
f 13//45 11//46 9//47 15//48
f 19//49 20//50 18//51 17//52
f 21//53 22//54 20//55 19//56
f 23//57 24//58 22//59 21//60
f 17//61 18//62 24//63 23//64
usemtl table:Mat
f 20//65 22//66 24//67 18//68
f 21//69 19//70 17//71 23//72
f 27//73 28//74 26//75 25//76
f 31//77 32//78 30//79 29//80
f 28//81 30//82 32//83 26//84
f 29//85 27//86 25//87 31//88
usemtl table:Mat_1
f 29//89 30//90 28//91 27//92
f 25//93 26//94 32//95 31//96
usemtl table:Mat
f 35//97 36//98 34//99 33//100
f 37//101 38//102 36//103 35//104
f 39//105 40//106 38//107 37//108
f 33//109 34//110 40//111 39//112
f 36//113 38//114 40//115 34//116
f 37//117 35//118 33//119 39//120
f 43//121 44//122 42//123 41//124
f 45//125 46//126 44//127 43//128
f 47//129 48//130 46//131 45//132
f 41//133 42//134 48//135 47//136
f 44//137 46//138 48//139 42//140
f 45//141 43//142 41//143 47//144
f 51//145 52//146 50//147 49//148
f 53//149 54//150 52//151 51//152
f 55//153 56//154 54//155 53//156
f 49//157 50//158 56//159 55//160
f 52//161 54//162 56//163 50//164
f 53//165 51//166 49//167 55//168
f 59//169 60//170 58//171 57//172
f 61//173 62//174 60//175 59//176
f 63//177 64//178 62//179 61//180
f 57//181 58//182 64//183 63//184
f 60//185 62//186 64//187 58//188
f 61//189 59//190 57//191 63//192
