{
  "accessors": {
    "accessor_index_0": {
      "bufferView": "bufferView_1",
      "byteOffset": 0,
      "byteStride": 0,
      "componentType": 5123,
      "count": 36,
      "type": "SCALAR",
      "min": [
        0
      ],
      "max": [
        23
      ]
    },
    "accessor_index_1": {
      "bufferView": "bufferView_1",
      "byteOffset": 72,
      "byteStride": 0,
      "componentType": 5123,
      "count": 1116,
      "type": "SCALAR",
      "min": [
        24
      ],
      "max": [
        863
      ]
    },
    "accessor_index_2": {
      "bufferView": "bufferView_1",
      "byteOffset": 2304,
      "byteStride": 0,
      "componentType": 5123,
      "count": 108,
      "type": "SCALAR",
      "min": [
        48
      ],
      "max": [
        527
      ]
    },
    "accessor_index_3": {
      "bufferView": "bufferView_1",
      "byteOffset": 2520,
      "byteStride": 0,
      "componentType": 5123,
      "count": 36,
      "type": "SCALAR",
      "min": [
        744
      ],
      "max": [
        767
      ]
    },
    "accessor_position": {
      "bufferView": "bufferView_0",
      "byteOffset": 0,
      "byteStride": 0,
      "componentType": 5126,
      "count": 864,
      "min": [
        -0.938730001449585,
        0.014220000244677067,
        -0.4669249951839447
      ],
      "max": [
        1.0465199947357178,
        1.0862549543380737,
        0.4595249891281128
      ],
      "type": "VEC3"
    },
    "accessor_normal": {
      "bufferView": "bufferView_0",
      "byteOffset": 10368,
      "byteStride": 0,
      "componentType": 5126,
      "count": 864,
      "type": "VEC3",
      "min": [
        -1,
        -1,
        -1
      ],
      "max": [
        1,
        1,
        1
      ]
    }
  },
  "asset": {
    "generator": "OBJ2GLTF",
    "premultipliedAlpha": true,
    "profile": {
      "api": "WebGL",
      "version": "1.0"
    },
    "version": "1.0"
  },
  "buffers": {
    "buffer_0": {
      "type": "arraybuffer",
      "byteLength": 23328,
      "uri": "buffer_0.bin"
    }
  },
  "bufferViews": {
    "bufferView_0": {
      "buffer": "buffer_0",
      "byteLength": 20736,
      "byteOffset": 0,
      "target": 34962
    },
    "bufferView_1": {
      "buffer": "buffer_0",
      "byteLength": 2592,
      "byteOffset": 20736,
      "target": 34963
    }
  },
  "images": {},
  "materials": {
    "material_353535": {
      "name": "353535",
      "extensions": {},
      "values": {
        "ambient": [
          0,
          0,
          0,
          1
        ],
        "diffuse": [
          0.207843,
          0.207843,
          0.207843,
          1
        ],
        "emission": [
          0,
          0,
          0,
          1
        ],
        "specular": [
          0.001176,
          0.001176,
          0.001176,
          1
        ],
        "shininess": 96.078431,
        "transparency": 1
      },
      "technique": "technique0"
    },
    "material_b0b0b0": {
      "name": "b0b0b0",
      "extensions": {},
      "values": {
        "ambient": [
          0,
          0,
          0,
          1
        ],
        "diffuse": [
          0.690196,
          0.690196,
          0.690196,
          1
        ],
        "emission": [
          0,
          0,
          0,
          1
        ],
        "specular": [
          0.001176,
          0.001176,
          0.001176,
          1
        ],
        "shininess": 96.078431,
        "transparency": 1
      },
      "technique": "technique0"
    },
    "material_baa995": {
      "name": "baa995",
      "extensions": {},
      "values": {
        "ambient": [
          0,
          0,
          0,
          1
        ],
        "diffuse": [
          0.73,
          0.663724,
          0.585921,
          1
        ],
        "emission": [
          0,
          0,
          0,
          1
        ],
        "specular": [
          0.001176,
          0.001176,
          0.001176,
          1
        ],
        "shininess": 96.078431,
        "transparency": 1
      },
      "technique": "technique0"
    },
    "material_ffffff": {
      "name": "ffffff",
      "extensions": {},
      "values": {
        "ambient": [
          0,
          0,
          0,
          1
        ],
        "diffuse": [
          1,
          1,
          1,
          1
        ],
        "emission": [
          0,
          0,
          0,
          1
        ],
        "specular": [
          0.001176,
          0.001176,
          0.001176,
          1
        ],
        "shininess": 96.078431,
        "transparency": 1
      },
      "technique": "technique0"
    }
  },
  "meshes": {
    "mesh_table": {
      "name": "table",
      "primitives": [
        {
          "attributes": {
            "POSITION": "accessor_position",
            "NORMAL": "accessor_normal"
          },
          "indices": "accessor_index_0",
          "material": "material_353535",
          "mode": 4
        },
        {
          "attributes": {
            "POSITION": "accessor_position",
            "NORMAL": "accessor_normal"
          },
          "indices": "accessor_index_1",
          "material": "material_b0b0b0",
          "mode": 4
        },
        {
          "attributes": {
            "POSITION": "accessor_position",
            "NORMAL": "accessor_normal"
          },
          "indices": "accessor_index_2",
          "material": "material_ffffff",
          "mode": 4
        },
        {
          "attributes": {
            "POSITION": "accessor_position",
            "NORMAL": "accessor_normal"
          },
          "indices": "accessor_index_3",
          "material": "material_baa995",
          "mode": 4
        }
      ]
    }
  },
  "nodes": {
    "rootNode": {
      "children": [],
      "meshes": [
        "mesh_table"
      ],
      "matrix": [
        1,
        0,
        0,
        0,
        0,
        1,
        0,
        0,
        0,
        0,
        1,
        0,
        0,
        0,
        0,
        1
      ]
    }
  },
  "samplers": {},
  "scene": "scene_table",
  "scenes": {
    "scene_table": {
      "nodes": [
        "rootNode"
      ]
    }
  },
  "textures": {},
  "extensionsUsed": [],
  "animations": {},
  "cameras": {},
  "techniques": {
    "technique0": {
      "attributes": {
        "a_position": "position",
        "a_normal": "normal"
      },
      "parameters": {
        "modelViewMatrix": {
          "semantic": "MODELVIEW",
          "type": 35676
        },
        "projectionMatrix": {
          "semantic": "PROJECTION",
          "type": 35676
        },
        "normalMatrix": {
          "semantic": "MODELVIEWINVERSETRANSPOSE",
          "type": 35675
        },
        "ambient": {
          "type": 35666
        },
        "diffuse": {
          "type": 35666
        },
        "emission": {
          "type": 35666
        },
        "specular": {
          "type": 35666
        },
        "shininess": {
          "type": 5126
        },
        "transparency": {
          "type": 5126
        },
        "position": {
          "semantic": "POSITION",
          "type": 35665
        },
        "normal": {
          "semantic": "NORMAL",
          "type": 35665
        }
      },
      "program": "program0",
      "states": {
        "enable": [
          2884,
          2929
        ]
      },
      "uniforms": {
        "u_modelViewMatrix": "modelViewMatrix",
        "u_projectionMatrix": "projectionMatrix",
        "u_normalMatrix": "normalMatrix",
        "u_ambient": "ambient",
        "u_diffuse": "diffuse",
        "u_emission": "emission",
        "u_specular": "specular",
        "u_shininess": "shininess",
        "u_transparency": "transparency"
      }
    }
  },
  "programs": {
    "program0": {
      "attributes": [
        "a_position",
        "a_normal"
      ],
      "fragmentShader": "fragmentShader0",
      "vertexShader": "vertexShader0"
    }
  },
  "shaders": {
    "vertexShader0": {
      "type": 35633,
      "uri": "vertexShader0.glsl"
    },
    "fragmentShader0": {
      "type": 35632,
      "uri": "fragmentShader0.glsl"
    }
  },
  "skins": {},
  "extensions": {}
}
