# This file uses centimeters as units for non-parametric coordinates.

mtllib Jet_table.mtl
g default
v -0.397428 0.619927 -0.696902
v -0.397428 0.701432 -0.696902
v 0.417623 0.619927 -0.696902
v 0.417623 0.701432 -0.696902
v 0.417623 0.619927 -0.778407
v 0.417623 0.701432 -0.778407
v -0.397428 0.619927 -0.778407
v -0.397428 0.701432 -0.778407
v -0.397428 0.619927 0.764671
v -0.397428 0.701432 0.764671
v 0.417623 0.619927 0.764671
v 0.417623 0.701432 0.764671
v 0.417623 0.619927 0.683166
v 0.417623 0.701432 0.683166
v -0.397428 0.619927 0.683166
v -0.397428 0.701432 0.683166
v -0.030655 0.619927 0.728695
v -0.030655 0.701432 0.728695
v 0.050850 0.619927 0.728695
v 0.050850 0.701432 0.728695
v 0.050850 0.619927 -0.738397
v 0.050850 0.701432 -0.738397
v -0.030655 0.619927 -0.738397
v -0.030655 0.701432 -0.738397
v -0.560439 0.803457 0.891705
v -0.560439 0.844210 0.891705
v 0.580633 0.803457 0.891705
v 0.580633 0.844210 0.891705
v 0.580633 0.803457 -0.901408
v 0.580633 0.844210 -0.901408
v -0.560439 0.803457 -0.901408
v -0.560439 0.844210 -0.901408
v -0.478933 0.008639 0.769447
v -0.478933 0.823690 0.769447
v -0.397428 0.008639 0.769447
v -0.397428 0.823690 0.769447
v -0.397428 0.008639 0.687942
v -0.397428 0.823690 0.687942
v -0.478933 0.008639 0.687942
v -0.478933 0.823690 0.687942
v 0.417623 0.008639 0.769447
v 0.417623 0.823690 0.769447
v 0.499128 0.008639 0.769447
v 0.499128 0.823690 0.769447
v 0.499128 0.008639 0.687942
v 0.499128 0.823690 0.687942
v 0.417623 0.008639 0.687942
v 0.417623 0.823690 0.687942
v -0.478933 0.008639 -0.697645
v -0.478933 0.823690 -0.697645
v -0.397428 0.008639 -0.697645
v -0.397428 0.823690 -0.697645
v -0.397428 0.008639 -0.779150
v -0.397428 0.823690 -0.779150
v -0.478933 0.008639 -0.779150
v -0.478933 0.823690 -0.779150
v 0.417623 0.008639 -0.697645
v 0.417623 0.823690 -0.697645
v 0.499128 0.008639 -0.697645
v 0.499128 0.823690 -0.697645
v 0.499128 0.008639 -0.779150
v 0.499128 0.823690 -0.779150
v 0.417623 0.008639 -0.779150
v 0.417623 0.823690 -0.779150
vt 0.145636 0.608866
vt 0.173048 0.608866
vt 0.173048 0.636277
vt 0.145636 0.636277
vt 0.112090 0.608866
vt 0.139501 0.608866
vt 0.139501 0.636277
vt 0.112090 0.636277
vt 0.078543 0.608866
vt 0.105954 0.608866
vt 0.105954 0.636277
vt 0.078543 0.636277
vt 0.044996 0.608866
vt 0.072408 0.608866
vt 0.072408 0.636277
vt 0.044996 0.636277
vt 0.826594 0.001825
vt 0.854005 0.001825
vt 0.854005 0.495229
vt 0.826594 0.495229
vt 0.861675 0.001825
vt 0.889086 0.001825
vt 0.889086 0.495229
vt 0.861675 0.495229
vt 0.783717 0.001825
vt 0.797422 0.001825
vt 0.797422 0.604875
vt 0.783717 0.604875
vt 0.805155 0.001825
vt 0.818861 0.001825
vt 0.818861 0.604875
vt 0.805155 0.604875
vt 0.676247 0.608866
vt 0.676247 0.882979
vt 0.648836 0.882979
vt 0.648836 0.608866
vt 0.609154 0.608866
vt 0.609154 0.882979
vt 0.581743 0.882979
vt 0.581743 0.608866
vt 0.542061 0.608866
vt 0.542061 0.882979
vt 0.514649 0.882979
vt 0.514649 0.608866
vt 0.474967 0.608866
vt 0.474967 0.882979
vt 0.447556 0.882979
vt 0.447556 0.608866
vt 0.407874 0.608866
vt 0.407874 0.882979
vt 0.380463 0.882979
vt 0.380463 0.608866
vt 0.340781 0.608866
vt 0.340781 0.882979
vt 0.313370 0.882979
vt 0.313370 0.608866
vt 0.273688 0.608866
vt 0.273688 0.882979
vt 0.246276 0.882979
vt 0.246276 0.608866
vt 0.206594 0.608866
vt 0.206594 0.882979
vt 0.179183 0.882979
vt 0.179183 0.608866
vt 0.883663 0.499221
vt 0.911074 0.499221
vt 0.911074 0.773334
vt 0.883663 0.773334
vt 0.850116 0.499221
vt 0.877527 0.499221
vt 0.877527 0.773334
vt 0.850116 0.773334
vt 0.749476 0.608866
vt 0.776887 0.608866
vt 0.776887 0.882979
vt 0.749476 0.882979
vt 0.715929 0.608866
vt 0.743341 0.608866
vt 0.743341 0.882979
vt 0.715929 0.882979
vt 0.924167 0.001825
vt 0.924167 0.495229
vt 0.896756 0.495229
vt 0.896756 0.001825
vt 0.959249 0.001825
vt 0.959249 0.495229
vt 0.931837 0.495229
vt 0.931837 0.001825
vt 0.385751 0.001825
vt 0.385751 0.604875
vt 0.001992 0.604875
vt 0.001992 0.001825
vt 0.775736 0.001825
vt 0.775736 0.604875
vt 0.391977 0.604875
vt 0.391977 0.001825
vt 0.029403 0.640269
vt 0.029403 0.667680
vt 0.001992 0.667680
vt 0.001992 0.640269
vt 0.064679 0.640269
vt 0.064679 0.667680
vt 0.037268 0.667680
vt 0.037268 0.640269
vt 0.099761 0.640269
vt 0.099761 0.667680
vt 0.072349 0.667680
vt 0.072349 0.640269
vt 0.134842 0.640269
vt 0.134842 0.667680
vt 0.107430 0.667680
vt 0.107430 0.640269
vt 0.169923 0.640269
vt 0.169923 0.667680
vt 0.142512 0.667680
vt 0.142512 0.640269
vt 0.205004 0.886971
vt 0.205004 0.914382
vt 0.177593 0.914382
vt 0.177593 0.886971
vt 0.240085 0.886971
vt 0.240085 0.914382
vt 0.212674 0.914382
vt 0.212674 0.886971
vt 0.275166 0.886971
vt 0.275166 0.914382
vt 0.247755 0.914382
vt 0.247755 0.886971
vt 0.950756 0.499221
vt 0.978167 0.499221
vt 0.978167 0.773334
vt 0.950756 0.773334
vt 0.944620 0.773334
vt 0.917209 0.773334
vt 0.917209 0.499221
vt 0.944620 0.499221
vt 0.816569 0.608866
vt 0.843981 0.608866
vt 0.843981 0.882979
vt 0.816569 0.882979
vt 0.810434 0.882980
vt 0.783023 0.882980
vt 0.783023 0.608866
vt 0.810434 0.608866
vt 0.011450 0.608866
vt 0.038861 0.608866
vt 0.038861 0.636277
vt 0.011450 0.636277
vt 0.310247 0.914382
vt 0.282836 0.914382
vt 0.282836 0.886971
vt 0.310247 0.886971
vt 0.966918 0.001825
vt 0.980624 0.001825
vt 0.980624 0.385584
vt 0.966918 0.385584
vt 0.998008 0.773334
vt 0.984302 0.773334
vt 0.984302 0.389575
vt 0.998008 0.389575
vt 0.709794 0.608866
vt 0.709794 0.882979
vt 0.682383 0.882979
vt 0.682383 0.608866
vt 0.615289 0.882979
vt 0.615289 0.608866
vt 0.642701 0.608866
vt 0.642701 0.882979
vt 0.575607 0.608866
vt 0.575607 0.882979
vt 0.548196 0.882979
vt 0.548196 0.608866
vt 0.481103 0.882979
vt 0.481103 0.608866
vt 0.508514 0.608866
vt 0.508514 0.882979
vt 0.441421 0.608866
vt 0.441421 0.882979
vt 0.414010 0.882979
vt 0.414010 0.608866
vt 0.346916 0.882979
vt 0.346916 0.608866
vt 0.374328 0.608866
vt 0.374328 0.882979
vt 0.307234 0.608866
vt 0.307234 0.882979
vt 0.279823 0.882979
vt 0.279823 0.608866
vt 0.212730 0.882979
vt 0.212730 0.608866
vt 0.240141 0.608866
vt 0.240141 0.882979
vn 0.000000 0.000000 1.000000
vn 0.000000 0.000000 1.000000
vn 0.000000 0.000000 1.000000
vn 0.000000 0.000000 1.000000
vn 1.000000 0.000000 0.000000
vn 1.000000 0.000000 0.000000
vn 1.000000 0.000000 0.000000
vn 1.000000 0.000000 0.000000
vn -0.000000 0.000000 -1.000000
vn -0.000000 0.000000 -1.000000
vn -0.000000 0.000000 -1.000000
vn -0.000000 0.000000 -1.000000
vn -1.000000 0.000000 0.000000
vn -1.000000 0.000000 0.000000
vn -1.000000 0.000000 0.000000
vn -1.000000 0.000000 0.000000
vn 0.000000 1.000000 0.000000
vn 0.000000 1.000000 0.000000
vn 0.000000 1.000000 0.000000
vn 0.000000 1.000000 0.000000
vn -0.000000 -1.000000 0.000000
vn -0.000000 -1.000000 0.000000
vn -0.000000 -1.000000 0.000000
vn -0.000000 -1.000000 0.000000
vn 0.000000 0.000000 1.000000
vn 0.000000 0.000000 1.000000
vn 0.000000 0.000000 1.000000
vn 0.000000 0.000000 1.000000
vn 1.000000 0.000000 0.000000
vn 1.000000 0.000000 0.000000
vn 1.000000 0.000000 0.000000
vn 1.000000 0.000000 0.000000
vn -0.000000 0.000000 -1.000000
vn -0.000000 0.000000 -1.000000
vn -0.000000 0.000000 -1.000000
vn -0.000000 0.000000 -1.000000
vn -1.000000 0.000000 0.000000
vn -1.000000 0.000000 0.000000
vn -1.000000 0.000000 0.000000
vn -1.000000 0.000000 0.000000
vn 0.000000 1.000000 0.000000
vn 0.000000 1.000000 0.000000
vn 0.000000 1.000000 0.000000
vn 0.000000 1.000000 0.000000
vn -0.000000 -1.000000 0.000000
vn -0.000000 -1.000000 0.000000
vn -0.000000 -1.000000 0.000000
vn -0.000000 -1.000000 0.000000
vn 0.000000 0.000000 1.000000
vn 0.000000 0.000000 1.000000
vn 0.000000 0.000000 1.000000
vn 0.000000 0.000000 1.000000
vn 1.000000 0.000000 0.000000
vn 1.000000 0.000000 0.000000
vn 1.000000 0.000000 0.000000
vn 1.000000 0.000000 0.000000
vn -0.000000 0.000000 -1.000000
vn -0.000000 0.000000 -1.000000
vn -0.000000 0.000000 -1.000000
vn -0.000000 0.000000 -1.000000
vn -1.000000 0.000000 0.000000
vn -1.000000 0.000000 0.000000
vn -1.000000 0.000000 0.000000
vn -1.000000 0.000000 0.000000
vn 0.000000 1.000000 0.000000
vn 0.000000 1.000000 0.000000
vn 0.000000 1.000000 0.000000
vn 0.000000 1.000000 0.000000
vn -0.000000 -1.000000 0.000000
vn -0.000000 -1.000000 0.000000
vn -0.000000 -1.000000 0.000000
vn -0.000000 -1.000000 0.000000
vn 0.000000 0.000000 1.000000
vn 0.000000 0.000000 1.000000
vn 0.000000 0.000000 1.000000
vn 0.000000 0.000000 1.000000
vn -0.000000 0.000000 -1.000000
vn -0.000000 0.000000 -1.000000
vn -0.000000 0.000000 -1.000000
vn -0.000000 0.000000 -1.000000
vn 0.000000 1.000000 0.000000
vn 0.000000 1.000000 0.000000
vn 0.000000 1.000000 0.000000
vn 0.000000 1.000000 0.000000
vn -0.000000 -1.000000 0.000000
vn -0.000000 -1.000000 0.000000
vn -0.000000 -1.000000 0.000000
vn -0.000000 -1.000000 0.000000
vn 1.000000 0.000000 0.000000
vn 1.000000 0.000000 0.000000
vn 1.000000 0.000000 0.000000
vn 1.000000 0.000000 0.000000
vn -1.000000 0.000000 0.000000
vn -1.000000 0.000000 0.000000
vn -1.000000 0.000000 0.000000
vn -1.000000 0.000000 0.000000
vn 0.000000 0.000000 1.000000
vn 0.000000 0.000000 1.000000
vn 0.000000 0.000000 1.000000
vn 0.000000 0.000000 1.000000
vn 1.000000 0.000000 0.000000
vn 1.000000 0.000000 0.000000
vn 1.000000 0.000000 0.000000
vn 1.000000 0.000000 0.000000
vn -0.000000 0.000000 -1.000000
vn -0.000000 0.000000 -1.000000
vn -0.000000 0.000000 -1.000000
vn -0.000000 0.000000 -1.000000
vn -1.000000 0.000000 0.000000
vn -1.000000 0.000000 0.000000
vn -1.000000 0.000000 0.000000
vn -1.000000 0.000000 0.000000
vn 0.000000 1.000000 0.000000
vn 0.000000 1.000000 0.000000
vn 0.000000 1.000000 0.000000
vn 0.000000 1.000000 0.000000
vn -0.000000 -1.000000 0.000000
vn -0.000000 -1.000000 0.000000
vn -0.000000 -1.000000 0.000000
vn -0.000000 -1.000000 0.000000
vn 0.000000 0.000000 1.000000
vn 0.000000 0.000000 1.000000
vn 0.000000 0.000000 1.000000
vn 0.000000 0.000000 1.000000
vn 1.000000 0.000000 0.000000
vn 1.000000 0.000000 0.000000
vn 1.000000 0.000000 0.000000
vn 1.000000 0.000000 0.000000
vn -0.000000 0.000000 -1.000000
vn -0.000000 0.000000 -1.000000
vn -0.000000 0.000000 -1.000000
vn -0.000000 0.000000 -1.000000
vn -1.000000 0.000000 0.000000
vn -1.000000 0.000000 0.000000
vn -1.000000 0.000000 0.000000
vn -1.000000 0.000000 0.000000
vn 0.000000 1.000000 0.000000
vn 0.000000 1.000000 0.000000
vn 0.000000 1.000000 0.000000
vn 0.000000 1.000000 0.000000
vn -0.000000 -1.000000 0.000000
vn -0.000000 -1.000000 0.000000
vn -0.000000 -1.000000 0.000000
vn -0.000000 -1.000000 0.000000
vn 0.000000 0.000000 1.000000
vn 0.000000 0.000000 1.000000
vn 0.000000 0.000000 1.000000
vn 0.000000 0.000000 1.000000
vn 1.000000 0.000000 0.000000
vn 1.000000 0.000000 0.000000
vn 1.000000 0.000000 0.000000
vn 1.000000 0.000000 0.000000
vn -0.000000 0.000000 -1.000000
vn -0.000000 0.000000 -1.000000
vn -0.000000 0.000000 -1.000000
vn -0.000000 0.000000 -1.000000
vn -1.000000 0.000000 0.000000
vn -1.000000 0.000000 0.000000
vn -1.000000 0.000000 0.000000
vn -1.000000 0.000000 0.000000
vn 0.000000 1.000000 0.000000
vn 0.000000 1.000000 0.000000
vn 0.000000 1.000000 0.000000
vn 0.000000 1.000000 0.000000
vn -0.000000 -1.000000 0.000000
vn -0.000000 -1.000000 0.000000
vn -0.000000 -1.000000 0.000000
vn -0.000000 -1.000000 0.000000
vn 0.000000 0.000000 1.000000
vn 0.000000 0.000000 1.000000
vn 0.000000 0.000000 1.000000
vn 0.000000 0.000000 1.000000
vn 1.000000 0.000000 0.000000
vn 1.000000 0.000000 0.000000
vn 1.000000 0.000000 0.000000
vn 1.000000 0.000000 0.000000
vn -0.000000 0.000000 -1.000000
vn -0.000000 0.000000 -1.000000
vn -0.000000 0.000000 -1.000000
vn -0.000000 0.000000 -1.000000
vn -1.000000 0.000000 0.000000
vn -1.000000 0.000000 0.000000
vn -1.000000 0.000000 0.000000
vn -1.000000 0.000000 0.000000
vn 0.000000 1.000000 0.000000
vn 0.000000 1.000000 0.000000
vn 0.000000 1.000000 0.000000
vn 0.000000 1.000000 0.000000
vn -0.000000 -1.000000 0.000000
vn -0.000000 -1.000000 0.000000
vn -0.000000 -1.000000 0.000000
vn -0.000000 -1.000000 0.000000
s off

g table:Mesh
usemtl lambert5SG
f 3/129/1 4/130/2 2/131/3 1/132/4
f 5/1/5 6/2/6 4/3/7 3/4/8
f 7/133/9 8/134/10 6/135/11 5/136/12
f 1/5/13 2/6/14 8/7/15 7/8/16
f 4/65/17 6/66/18 8/67/19 2/68/20
f 5/69/21 3/70/22 1/71/23 7/72/24
f 11/137/25 12/138/26 10/139/27 9/140/28
f 13/9/29 14/10/30 12/11/31 11/12/32
f 15/141/33 16/142/34 14/143/35 13/144/36
f 9/13/37 10/14/38 16/15/39 15/16/40
f 12/73/41 14/74/42 16/75/43 10/76/44
f 13/77/45 11/78/46 9/79/47 15/80/48
f 19/145/49 20/146/50 18/147/51 17/148/52
f 21/17/53 22/18/54 20/19/55 19/20/56
f 23/149/57 24/150/58 22/151/59 21/152/60
f 17/21/61 18/22/62 24/23/63 23/24/64
f 20/81/65 22/82/66 24/83/67 18/84/68
f 21/85/69 19/86/70 17/87/71 23/88/72
f 27/153/73 28/154/74 26/155/75 25/156/76
f 31/157/77 32/158/78 30/159/79 29/160/80
f 28/89/81 30/90/82 32/91/83 26/92/84
f 29/93/85 27/94/86 25/95/87 31/96/88
f 29/25/89 30/26/90 28/27/91 27/28/92
f 25/29/93 26/30/94 32/31/95 31/32/96
f 35/161/97 36/162/98 34/163/99 33/164/100
f 37/33/101 38/34/102 36/35/103 35/36/104
f 39/165/105 40/166/106 38/167/107 37/168/108
f 33/37/109 34/38/110 40/39/111 39/40/112
f 36/97/113 38/98/114 40/99/115 34/100/116
f 37/101/117 35/102/118 33/103/119 39/104/120
f 43/169/121 44/170/122 42/171/123 41/172/124
f 45/41/125 46/42/126 44/43/127 43/44/128
f 47/173/129 48/174/130 46/175/131 45/176/132
f 41/45/133 42/46/134 48/47/135 47/48/136
f 44/105/137 46/106/138 48/107/139 42/108/140
f 45/109/141 43/110/142 41/111/143 47/112/144
f 51/177/145 52/178/146 50/179/147 49/180/148
f 53/49/149 54/50/150 52/51/151 51/52/152
f 55/181/153 56/182/154 54/183/155 53/184/156
f 49/53/157 50/54/158 56/55/159 55/56/160
f 52/113/161 54/114/162 56/115/163 50/116/164
f 53/117/165 51/118/166 49/119/167 55/120/168
f 59/185/169 60/186/170 58/187/171 57/188/172
f 61/57/173 62/58/174 60/59/175 59/60/176
f 63/189/177 64/190/178 62/191/179 61/192/180
f 57/61/181 58/62/182 64/63/183 63/64/184
f 60/121/185 62/122/186 64/123/187 58/124/188
f 61/125/189 59/126/190 57/127/191 63/128/192
